{"title":"The Box 2009 DVDrip English Klam","uid":6422387,"size":1548293991,"categoryP":"video","categoryS":"movies","magnet":"?xt=urn:btih:ab86690f7f609ffc2e302ef604f0fd4a7f6d53cf&amp;dn=The+Box+2009+DVDrip+English+Klam&amp;tr=udp%3A%2F%2Ftracker.openbittorrent.com%3A80&amp;tr=udp%3A%2F%2Fopen.demonii.com%3A1337&amp;tr=udp%3A%2F%2Ftracker.coppersurfer.tk%3A6969&amp;tr=udp%3A%2F%2Fexodus.desync.com%3A6969","seeders":0,"leechers":2,"uploader":"Klambake","files":-1,"time":1306343917,"description":"With: James Marsden, Cameron Diaz and Frank Langella\n\nNorma en Arthur Lewis, een jong stel dat in een buitenwijk woont, krijgen een simpel houten doosje cadeau. Een vreemdeling komt langs met het bericht dat de eigenaar van het doosje $1.000.000 zal krijgen als die op een knop drukt. Maar de druk op de knop zorgt er ook voor dat ergens anders op de wereld iemand sterft, iemand die ze niet kennen. Met de doos maar 24 uur in hun bezit, zitten Norma en Arthur met een dilemma. Gebaseerd op de &quot;Button, Button&quot; aflevering van The Twilight Zone.\n\nA small wooden box arrives on the doorstep of a married couple, who know that opening it will grant them a million dollars and kill someone they don't know. \n\nGeneral:\n\nComplete name                    : The Box\\The Box.avi\nFormat                           : AVI\nFormat/Info                      : Audio Video Interleave\nFile size                        : 1.44 GiB\nDuration                         : 1h 50mn\nOverall bit rate                 : 1 864 Kbps\n\nVideo:\n\nFormat                           : MPEG-4 Visual\nFormat profile                   : Simple@L3\nFormat settings, BVOP            : No\nFormat settings, QPel            : No\nFormat settings, GMC             : No warppoints\nFormat settings, Matrix          : Default (H.263)\nCodec ID                         : XVID\nCodec ID/Hint                    : XviD\nDuration                         : 1h 50mn\nBit rate                         : 1 405 Kbps\nWidth                            : 720 pixels\nHeight                           : 304 pixels\nDisplay aspect ratio             : 2.35:1\nFrame rate                       : 25.000 fps\nColor space                      : YUV\nChroma subsampling               : 4:2:0\nBit depth                        : 8 bits\nScan type                        : Progressive\nBits/(Pixel*Frame)               : 0.257\nStream size                      : 1.09 GiB (75%)\nWriting library                  : XviD 1.1.2 (UTC 2006-11-01)\n\nAudio:\n\nFormat                           : AC-3\nFormat/Info                      : Audio Coding 3\nMode extension                   : CM (complete main)\nCodec ID                         : 2000\nDuration                         : 1h 50mn\nBit rate mode                    : Constant\nBit rate                         : 448 Kbps\nChannel(s)                       : 6 channels\nChannel positions                : Front: L C R, Side: L R, LFE\nSampling rate                    : 48.0 KHz\nBit depth                        : 16 bits\nStream size                      : 355 MiB (24%)\nAlignment                        : Aligned on interleaves\nInterleave, duration             : 32 ms (0.80 video frame)\nInterleave, preload duration     : 288 ms\n","torrent":{"xt":"urn:btih:ab86690f7f609ffc2e302ef604f0fd4a7f6d53cf","amp;dn":"The+Box+2009+DVDrip+English+Klam","amp;tr":["udp%3A%2F%2Ftracker.openbittorrent.com%3A80","udp%3A%2F%2Fopen.demonii.com%3A1337","udp%3A%2F%2Ftracker.coppersurfer.tk%3A6969","udp%3A%2F%2Fexodus.desync.com%3A6969"],"infoHash":"ab86690f7f609ffc2e302ef604f0fd4a7f6d53cf","infoHashBuffer":{"type":"Buffer","data":[171,134,105,15,127,96,159,252,46,48,46,246,4,240,253,74,127,109,83,207]},"announce":[],"urlList":[]}}